<svg width="21" height="21" viewBox="0 0 21 21" fill="none" xmlns="http://www.w3.org/2000/svg">
<path d="M10.1875 5.7875C9.31726 5.7875 8.46657 6.04556 7.74299 6.52903C7.01941 7.01251 6.45546 7.6997 6.12243 8.50369C5.7894 9.30769 5.70227 10.1924 5.87205 11.0459C6.04182 11.8994 6.46088 12.6834 7.07623 13.2988C7.69158 13.9141 8.47559 14.3332 9.3291 14.503C10.1826 14.6727 11.0673 14.5856 11.8713 14.2526C12.6753 13.9195 13.3625 13.3556 13.846 12.632C14.3294 11.9084 14.5875 11.0577 14.5875 10.1875C14.5862 9.02095 14.1222 7.90257 13.2973 7.07769C12.4724 6.25282 11.354 5.78882 10.1875 5.7875ZM10.1875 13.7875C9.47549 13.7875 8.77946 13.5764 8.18745 13.1808C7.59543 12.7852 7.13401 12.223 6.86153 11.5652C6.58906 10.9073 6.51777 10.1835 6.65667 9.48517C6.79558 8.78684 7.13845 8.14539 7.64192 7.64192C8.14539 7.13845 8.78684 6.79558 9.48517 6.65667C10.1835 6.51777 10.9073 6.58906 11.5652 6.86153C12.223 7.13401 12.7852 7.59543 13.1808 8.18745C13.5764 8.77946 13.7875 9.47549 13.7875 10.1875C13.7875 11.1423 13.4082 12.058 12.7331 12.7331C12.058 13.4082 11.1423 13.7875 10.1875 13.7875ZM14.9875 0.1875H5.3875C4.00886 0.189088 2.68714 0.737453 1.7123 1.7123C0.737453 2.68714 0.189088 4.00886 0.1875 5.3875V14.9875C0.189088 16.3661 0.737453 17.6879 1.7123 18.6627C2.68714 19.6375 4.00886 20.1859 5.3875 20.1875H14.9875C16.3661 20.1859 17.6879 19.6375 18.6627 18.6627C19.6375 17.6879 20.1859 16.3661 20.1875 14.9875V5.3875C20.1859 4.00886 19.6375 2.68714 18.6627 1.7123C17.6879 0.737453 16.3661 0.189088 14.9875 0.1875ZM19.3875 14.9875C19.3862 16.154 18.9222 17.2724 18.0973 18.0973C17.2724 18.9222 16.154 19.3862 14.9875 19.3875H5.3875C4.22095 19.3862 3.10257 18.9222 2.27769 18.0973C1.45282 17.2724 0.988823 16.154 0.9875 14.9875V5.3875C0.988823 4.22095 1.45282 3.10257 2.27769 2.27769C3.10257 1.45282 4.22095 0.988823 5.3875 0.9875H14.9875C16.154 0.988823 17.2724 1.45282 18.0973 2.27769C18.9222 3.10257 19.3862 4.22095 19.3875 5.3875V14.9875ZM16.1875 4.9875C16.1875 5.14573 16.1406 5.3004 16.0527 5.43196C15.9648 5.56352 15.8398 5.66605 15.6936 5.7266C15.5475 5.78715 15.3866 5.803 15.2314 5.77213C15.0762 5.74126 14.9337 5.66507 14.8218 5.55319C14.7099 5.4413 14.6337 5.29876 14.6029 5.14357C14.572 4.98839 14.5878 4.82753 14.6484 4.68135C14.7089 4.53517 14.8115 4.41023 14.943 4.32232C15.0746 4.23442 15.2293 4.1875 15.3875 4.1875C15.5997 4.1875 15.8032 4.27179 15.9532 4.42181C16.1032 4.57184 16.1875 4.77533 16.1875 4.9875Z" fill="black"/>
</svg>
