<svg width="23" height="20" viewBox="0 0 23 20" fill="none" xmlns="http://www.w3.org/2000/svg">
<path d="M22.3179 0.126765C22.246 0.0646588 22.1585 0.0233871 22.0649 0.00741586C21.9713 -0.00855543 21.8751 0.00138199 21.7867 0.0361528L0.679257 8.29644C0.464085 8.37997 0.281891 8.53117 0.160137 8.72726C0.0383836 8.92335 -0.0163325 9.1537 0.00423587 9.3836C0.0248043 9.61349 0.119543 9.83047 0.274172 10.0018C0.428801 10.1732 0.634942 10.2897 0.861523 10.3337L6.66695 11.4731V17.9138C6.66692 18.163 6.74137 18.4065 6.88074 18.6131C7.02012 18.8196 7.21805 18.9798 7.44913 19.073C7.59784 19.1327 7.75655 19.1635 7.91678 19.1637C8.08448 19.1633 8.2504 19.1291 8.40464 19.0633C8.55888 18.9974 8.69829 18.9012 8.81457 18.7804L11.7308 15.76L16.2094 19.6875C16.4364 19.8878 16.7284 19.9988 17.0311 20C17.1633 19.9995 17.2947 19.9787 17.4206 19.9386C17.6268 19.8733 17.8123 19.7551 17.9585 19.5957C18.1047 19.4363 18.2066 19.2414 18.2539 19.0303L22.4845 0.637109C22.5057 0.544929 22.5014 0.44872 22.472 0.358808C22.4427 0.268896 22.3894 0.188678 22.3179 0.126765ZM0.834444 9.3088C0.828335 9.25842 0.839684 9.20747 0.866598 9.16444C0.893512 9.12142 0.934364 9.08892 0.98234 9.07238L19.1725 1.95359L6.9867 10.6867L1.02296 9.51606C0.97241 9.50866 0.925993 9.48396 0.891618 9.44616C0.857243 9.40837 0.837037 9.35982 0.834444 9.3088ZM8.21569 18.2013C8.1581 18.2606 8.08414 18.3015 8.00325 18.3186C7.92236 18.3358 7.83819 18.3285 7.76146 18.2977C7.68473 18.2669 7.61891 18.2139 7.57238 18.1455C7.52585 18.0772 7.50071 17.9965 7.50017 17.9138V12.0501L11.1017 15.2059L8.21569 18.2013ZM17.4415 18.8408C17.4254 18.9115 17.3911 18.9768 17.342 19.0302C17.2929 19.0836 17.2307 19.1233 17.1616 19.1453C17.0924 19.1672 17.0188 19.1708 16.9479 19.1556C16.8769 19.1404 16.8112 19.1069 16.7572 19.0585L7.75326 11.1627L21.4701 1.33284L17.4415 18.8408Z" fill="black"/>
</svg>
