<svg width="21" height="20" viewBox="0 0 21 20" fill="none" xmlns="http://www.w3.org/2000/svg">
<path d="M16.2786 12.042L13.0786 10.442C13.0156 10.4106 12.9455 10.3964 12.8752 10.4008C12.805 10.4052 12.7372 10.428 12.6786 10.467L11.0146 11.577C10.0999 11.1383 9.36226 10.4007 8.9236 9.486L10.0336 7.822C10.0726 7.76342 10.0954 7.69559 10.0998 7.62536C10.1042 7.55513 10.09 7.48498 10.0586 7.422L8.4586 4.222C8.42541 4.15521 8.3742 4.09902 8.31077 4.05979C8.24733 4.02056 8.17419 3.99985 8.0996 4C7.14482 4 6.22915 4.37928 5.55402 5.05442C4.87888 5.72955 4.4996 6.64522 4.4996 7.6C4.50198 9.82709 5.38774 11.9623 6.96253 13.5371C8.53732 15.1119 10.6725 15.9976 12.8996 16C13.8544 16 14.7701 15.6207 15.4452 14.9456C16.1203 14.2705 16.4996 13.3548 16.4996 12.4C16.4997 12.3257 16.479 12.2528 16.44 12.1896C16.4009 12.1264 16.3451 12.0753 16.2786 12.042ZM12.8996 15.2C10.8846 15.1979 8.95274 14.3965 7.52793 12.9717C6.10311 11.5469 5.30172 9.61499 5.2996 7.6C5.29948 6.8992 5.56216 6.22384 6.03575 5.70729C6.50935 5.19074 7.15943 4.87057 7.8576 4.81L9.2376 7.571L8.1376 9.225C8.10094 9.27957 8.07829 9.34234 8.07166 9.40774C8.06503 9.47315 8.07463 9.53918 8.0996 9.6C8.63105 10.8635 9.63615 11.8685 10.8996 12.4C10.9605 12.4253 11.0266 12.4351 11.0922 12.4287C11.1578 12.4222 11.2208 12.3997 11.2756 12.363L12.9296 11.263L15.6906 12.643C15.6298 13.3412 15.3094 13.9911 14.7926 14.4646C14.2759 14.938 13.6004 15.2004 12.8996 15.2ZM10.4996 1.72766e-07C8.75869 -0.000323391 7.04785 0.453848 5.53631 1.31759C4.02478 2.18133 2.76493 3.42472 1.88137 4.92475C0.997813 6.42479 0.521168 8.1295 0.498583 9.87027C0.475999 11.611 0.908257 13.3275 1.7526 14.85L0.5626 18.419C0.492089 18.6304 0.481856 18.8573 0.533049 19.0743C0.584242 19.2912 0.694837 19.4896 0.852439 19.6472C1.01004 19.8048 1.20842 19.9154 1.42535 19.9666C1.64227 20.0177 1.86917 20.0075 2.0806 19.937L5.6496 18.747C6.98465 19.4867 8.47132 19.9111 9.9957 19.9875C11.5201 20.0639 13.0417 19.7903 14.4441 19.1878C15.8464 18.5852 17.0922 17.6696 18.086 16.5112C19.0798 15.3528 19.7952 13.9823 20.1775 12.5046C20.5598 11.027 20.5988 9.48142 20.2914 7.98639C19.9841 6.49136 19.3386 5.08651 18.4044 3.87949C17.4703 2.67246 16.2722 1.6953 14.902 1.02285C13.5318 0.350396 12.0259 0.000512034 10.4996 1.72766e-07ZM10.4996 19.2C8.88207 19.2005 7.293 18.7745 5.8926 17.965C5.83174 17.93 5.76282 17.9114 5.6926 17.911C5.6494 17.911 5.60649 17.9181 5.5656 17.932L1.8276 19.178C1.75712 19.2015 1.68149 19.2049 1.60918 19.1878C1.53687 19.1708 1.47075 19.1339 1.41821 19.0814C1.36568 19.0289 1.32881 18.9627 1.31175 18.8904C1.29469 18.8181 1.2981 18.7425 1.3216 18.672L2.5676 14.934C2.58557 14.8803 2.59193 14.8233 2.58624 14.767C2.58055 14.7106 2.56295 14.6561 2.5346 14.607C1.5203 12.8537 1.11295 10.8148 1.37575 8.80637C1.63854 6.79798 2.55679 4.93245 3.98803 3.49919C5.41928 2.06593 7.28352 1.14506 9.29154 0.879448C11.2996 0.613831 13.3391 1.01831 15.0938 2.03014C16.8485 3.04197 18.2202 4.60459 18.9961 6.47558C19.7721 8.34657 19.9089 10.4213 19.3853 12.378C18.8618 14.3347 17.7071 16.0639 16.1005 17.2974C14.4939 18.5309 12.5251 19.1996 10.4996 19.2Z" fill="black"/>
</svg>
